<svg version="1.1" viewBox="0 0 3050 5429" xmlns="http://www.w3.org/2000/svg">
  <path d="m2052.491 3652.214c22.5571 2.5109 48.8176 14.2275 63.7996 32.6397 14.982 18.412 18.6853 43.5187 17.8437 64.2741-0.8418 20.7552-6.2285 37.1582-19.0222 46.8663-12.7938 9.7081-32.9937 12.721-55.2144 12.2188-22.2207-0.5023-46.4607-4.5193-62.4526-20.5881-15.9921-16.0687-23.7354-44.1883-23.2303-66.9521 0.5052-22.764 9.2584-40.1713 23.0622-52.2227 13.8038-12.0515 32.657-18.7465 55.214-16.236z"/>
  <path d="m1794.366 4212.395c32.5537 0 60.2243-6.2474 81.3841-36.3129 21.16-30.0658 35.8088-83.9475 35.4018-123.3837-0.4071-39.4363-15.8697-64.425-36.2161-78.091-20.3462-13.6659-45.5746-16.0087-72.0247-20.3036-26.45-4.2951-54.12-10.5424-80.57-2.3426-26.4501 8.1998-51.6786 30.8458-63.4793 61.3017-11.8006 30.4559-10.1729 68.7198-3.2552 101.128 6.9177 32.408 19.1251 58.9584 43.9476 75.3577 24.8224 16.3991 62.2583 22.6464 94.8118 22.6464z"/>
  <path d="m2029.414 4303.643c-35.981 9.7027-78.026 39.6193-96.6227 73.175-18.597 33.5555-13.7456 70.7485-7.277 101.8782 6.4684 31.1299 14.5539 56.1947 44.8754 70.7487 30.3214 14.5542 82.8767 18.5969 120.475 10.511 37.5982-8.0858 60.2374-28.2992 74.3871-59.8335 14.1498-31.5342 19.8098-74.387 11.724-107.134-8.0859-32.7468-29.9166-55.386-55.7908-71.9615-25.874-16.5756-55.7902-27.0866-91.771-17.3839z"/>
  <path d="m1202.551 4672.716c-193.7196 5.9577-270.4617 20.255-339.1606 42.2985-68.69898 22.0434-129.3505 51.8312-193.717 76.8537-64.36649 25.0224-132.4439 45.2784-186.2892 74.471-53.84521 29.1927-93.45475 67.321-149.7753 105.4505-56.32054 38.1292-129.3496 76.2574-182.5759 141.1962-53.22639 64.9387-86.64624 156.6862-64.36574 289.5418 3.288413 19.6083 7.789455 40.1115 13.74926 61.1717h2892.746c0.166-0.9298 0.3296-1.8579 0.4906-2.7849 26.6138-153.1135-10.52-267.4983-70.5538-349.1192-60.034-81.6209-142.9659-130.4725-225.2808-181.7087-82.3149-51.2364-164.0089-104.8539-237.0401-134.6425-73.0314-29.7889-137.3958-35.7468-209.8081-52.4282-72.4123-16.6815-152.8669-44.0864-348.441-58.9808-195.574-14.8945-506.2583-17.2767-699.978-11.3191z"/>
</svg>
